<mxfile host="65bd71144e">
    <diagram id="ugtyU-MpHyGL_w-oipPT" name="Page-1">
        <mxGraphModel dx="1006" dy="728" grid="1" gridSize="10" guides="1" tooltips="1" connect="1" arrows="1" fold="1" page="1" pageScale="1" pageWidth="827" pageHeight="1169" math="0" shadow="0">
            <root>
                <mxCell id="0"/>
                <mxCell id="1" parent="0"/>
                <mxCell id="10" style="edgeStyle=none;html=1;entryX=0.5;entryY=0;entryDx=0;entryDy=0;rounded=0;" parent="1" source="2" target="3" edge="1">
                    <mxGeometry relative="1" as="geometry">
                        <Array as="points">
                            <mxPoint x="414" y="230"/>
                            <mxPoint x="230" y="230"/>
                        </Array>
                    </mxGeometry>
                </mxCell>
                <mxCell id="11" style="edgeStyle=none;rounded=0;html=1;entryX=0.5;entryY=0;entryDx=0;entryDy=0;" parent="1" source="2" target="5" edge="1">
                    <mxGeometry relative="1" as="geometry"/>
                </mxCell>
                <mxCell id="12" style="edgeStyle=none;rounded=0;html=1;entryX=0.5;entryY=0;entryDx=0;entryDy=0;" parent="1" source="2" target="4" edge="1">
                    <mxGeometry relative="1" as="geometry">
                        <Array as="points">
                            <mxPoint x="414" y="230"/>
                            <mxPoint x="600" y="230"/>
                        </Array>
                    </mxGeometry>
                </mxCell>
                <mxCell id="2" value="Surface area of a cube" style="rounded=0;whiteSpace=wrap;html=1;" parent="1" vertex="1">
                    <mxGeometry x="354" y="140" width="120" height="60" as="geometry"/>
                </mxCell>
                <mxCell id="14" style="edgeStyle=none;rounded=0;html=1;entryX=0.5;entryY=0;entryDx=0;entryDy=0;" parent="1" source="3" target="6" edge="1">
                    <mxGeometry relative="1" as="geometry"/>
                </mxCell>
                <mxCell id="3" value="Input" style="rounded=0;whiteSpace=wrap;html=1;" parent="1" vertex="1">
                    <mxGeometry x="170" y="270" width="120" height="60" as="geometry"/>
                </mxCell>
                <mxCell id="16" style="edgeStyle=none;rounded=0;html=1;entryX=0.5;entryY=0;entryDx=0;entryDy=0;" parent="1" source="4" target="9" edge="1">
                    <mxGeometry relative="1" as="geometry"/>
                </mxCell>
                <mxCell id="4" value="Output" style="rounded=0;whiteSpace=wrap;html=1;" parent="1" vertex="1">
                    <mxGeometry x="540" y="270" width="120" height="60" as="geometry"/>
                </mxCell>
                <mxCell id="15" style="edgeStyle=none;rounded=0;html=1;" parent="1" source="5" target="8" edge="1">
                    <mxGeometry relative="1" as="geometry"/>
                </mxCell>
                <mxCell id="5" value="Process" style="rounded=0;whiteSpace=wrap;html=1;" parent="1" vertex="1">
                    <mxGeometry x="354" y="270" width="120" height="60" as="geometry"/>
                </mxCell>
                <mxCell id="6" value="Get length in cm" style="rounded=0;whiteSpace=wrap;html=1;" parent="1" vertex="1">
                    <mxGeometry x="170" y="380" width="120" height="60" as="geometry"/>
                </mxCell>
                <mxCell id="8" value="Calculate surface area = length x length x 6" style="rounded=0;whiteSpace=wrap;html=1;" parent="1" vertex="1">
                    <mxGeometry x="354" y="380" width="120" height="60" as="geometry"/>
                </mxCell>
                <mxCell id="9" value="Print surface area in &lt;span id=&quot;docs-internal-guid-6c8c073e-7fff-9899-2ad8-b0d64ef578c5&quot;&gt;&lt;span style=&quot;font-size: 11pt ; font-family: &amp;#34;helvetica neue&amp;#34; , sans-serif ; background-color: transparent ; vertical-align: baseline&quot;&gt;cm&lt;/span&gt;&lt;span style=&quot;font-size: 11pt ; font-family: &amp;#34;helvetica neue&amp;#34; , sans-serif ; background-color: transparent ; vertical-align: baseline&quot;&gt;&lt;span style=&quot;font-size: 0.6em ; vertical-align: super&quot;&gt;2&lt;/span&gt;&lt;/span&gt;&lt;/span&gt;" style="rounded=0;whiteSpace=wrap;html=1;" parent="1" vertex="1">
                    <mxGeometry x="540" y="380" width="120" height="60" as="geometry"/>
                </mxCell>
            </root>
        </mxGraphModel>
    </diagram>
</mxfile>